<svg width="25" height="24" viewBox="0 0 25 24" fill="none" xmlns="http://www.w3.org/2000/svg">
<path d="M13.625 12V15.75C13.625 16.0484 13.5065 16.3345 13.2955 16.5455C13.0845 16.7565 12.7984 16.875 12.5 16.875C12.2016 16.875 11.9155 16.7565 11.7045 16.5455C11.4935 16.3345 11.375 16.0484 11.375 15.75V12C11.375 11.7016 11.4935 11.4155 11.7045 11.2045C11.9155 10.9935 12.2016 10.875 12.5 10.875C12.7984 10.875 13.0845 10.9935 13.2955 11.2045C13.5065 11.4155 13.625 11.7016 13.625 12ZM23.3581 9.24751L22.0625 18.9975C22.0013 19.4482 21.7788 19.8614 21.4363 20.1606C21.0938 20.4599 20.6545 20.6248 20.1997 20.625H4.8003C4.34569 20.6247 3.90658 20.4598 3.56414 20.1608C3.2217 19.8617 2.9991 19.4489 2.93749 18.9985L1.63811 9.24845C1.60267 8.98331 1.62437 8.71366 1.70175 8.45759C1.77914 8.20153 1.91042 7.96499 2.08677 7.76386C2.26313 7.56273 2.48048 7.40166 2.72423 7.29147C2.96798 7.18128 3.23249 7.12453 3.49999 7.12501H6.73905L11.6562 1.50939C11.7618 1.38874 11.892 1.29206 12.038 1.22582C12.184 1.15957 12.3425 1.12531 12.5028 1.12531C12.6631 1.12531 12.8216 1.15957 12.9676 1.22582C13.1136 1.29206 13.2438 1.38874 13.3494 1.50939L18.2609 7.12501H21.5C21.767 7.12521 22.0309 7.18244 22.274 7.29287C22.5171 7.40329 22.7338 7.56437 22.9097 7.76532C23.0855 7.96627 23.2164 8.20245 23.2936 8.45807C23.3707 8.71368 23.3924 8.98284 23.3572 9.24751H23.3581ZM9.72968 7.12501H15.2712L12.5 3.95814L9.72968 7.12501ZM21.0734 9.37501H3.92843L5.12843 18.375H19.8716L21.0734 9.37501ZM16.2575 11.8885L15.8825 15.6385C15.8529 15.9353 15.9425 16.2318 16.1315 16.4626C16.3205 16.6935 16.5934 16.8398 16.8903 16.8694C16.9278 16.8694 16.9662 16.875 17.0037 16.875C17.2825 16.8745 17.5511 16.7706 17.7575 16.5834C17.964 16.3961 18.0936 16.1389 18.1212 15.8616L18.4962 12.1116C18.5128 11.9636 18.4998 11.8139 18.458 11.671C18.4162 11.5281 18.3465 11.395 18.2529 11.2792C18.1593 11.1635 18.0436 11.0675 17.9126 10.9968C17.7816 10.926 17.6379 10.882 17.4898 10.8673C17.3416 10.8525 17.192 10.8673 17.0497 10.9108C16.9073 10.9542 16.775 11.0255 16.6604 11.1205C16.5457 11.2155 16.4511 11.3323 16.382 11.4641C16.3128 11.5959 16.2705 11.7402 16.2575 11.8885ZM8.74624 11.8885C8.71338 11.5942 8.56587 11.3248 8.33569 11.1386C8.10551 10.9524 7.81121 10.8645 7.51662 10.8939C7.22202 10.9232 6.95088 11.0675 6.76197 11.2955C6.57306 11.5234 6.48163 11.8167 6.50749 12.1116L6.88249 15.8616C6.91013 16.1389 7.03974 16.3961 7.2462 16.5834C7.45266 16.7706 7.72127 16.8745 7.99999 16.875C8.03655 16.875 8.07499 16.875 8.11249 16.8694C8.40936 16.8398 8.68231 16.6935 8.87131 16.4626C9.0603 16.2318 9.14987 15.9353 9.1203 15.6385L8.74624 11.8885Z" fill="#809BF9"/>
</svg>
