<svg width="88" height="88" viewBox="0 0 88 88" fill="none" xmlns="http://www.w3.org/2000/svg">
<path fill-rule="evenodd" clip-rule="evenodd" d="M75.7659 30.8413C76.175 31.8278 77.4228 33.1306 78.6328 34.3922L78.6336 34.393C80.9675 36.8266 83.875 39.8583 83.875 44C83.875 48.1417 80.9675 51.1734 78.6336 53.607L78.6328 53.6078C77.4228 54.8694 76.175 56.1722 75.7659 57.1587C75.4016 58.0387 75.3741 59.8503 75.35 61.4453L75.3489 61.5085C75.2873 64.935 75.2111 69.1742 72.1944 72.1944C69.1591 75.2331 64.8828 75.2984 61.4453 75.35C59.8503 75.3741 58.0387 75.4016 57.1587 75.7659C56.1722 76.175 54.8694 77.4228 53.6078 78.6328C51.1741 80.9669 48.125 83.875 44 83.875C39.8808 83.875 36.8344 80.975 34.4024 78.6597L34.3922 78.65C33.1306 77.44 31.8278 76.1922 30.8413 75.7831C29.9613 75.4187 28.1497 75.3913 26.5547 75.3672L26.4915 75.3661C23.065 75.3045 18.8258 75.2283 15.8056 72.2116C12.7669 69.1763 12.7016 64.9 12.65 61.4625C12.6259 59.8675 12.5984 58.0559 12.2341 57.1759C11.825 56.1894 10.5772 54.8866 9.36719 53.625L9.35925 53.6167C7.02654 51.1671 4.125 48.1203 4.125 44C4.125 39.875 7.03313 36.8259 9.36719 34.3922C10.5772 33.1306 11.825 31.8278 12.2341 30.8413C12.5984 29.9613 12.6259 28.1497 12.65 26.5547L12.6514 26.4866C12.7197 23.0611 12.804 18.838 15.8125 15.8125C18.804 12.804 23.0131 12.7204 26.4286 12.6525C26.4708 12.6517 26.5128 12.6508 26.5547 12.65C28.1497 12.6259 29.9613 12.5984 30.8413 12.2341C31.8278 11.825 33.1306 10.5772 34.3922 9.36719L34.393 9.36642C36.8266 7.03249 39.8583 4.125 44 4.125C48.1417 4.125 51.1734 7.03247 53.607 9.3664L53.6078 9.36719C54.8694 10.5772 56.1722 11.825 57.1587 12.2341C58.0387 12.5984 59.8503 12.6259 61.4453 12.65L61.5084 12.6511C64.935 12.7127 69.1742 12.7889 72.1944 15.8056C75.2331 18.8409 75.2984 23.1172 75.35 26.5547C75.3741 28.1497 75.4016 29.9613 75.7659 30.8413Z" fill="#7CD055"/>
<path fill-rule="evenodd" clip-rule="evenodd" d="M61.5662 34.1715C61.358 33.6701 61.0528 33.2148 60.6683 32.8315C60.2859 32.4473 59.8315 32.1423 59.3311 31.9338C58.8307 31.7253 58.2941 31.6175 57.752 31.6166C57.2099 31.6156 56.6729 31.7215 56.1718 31.9282C55.6707 32.1349 55.2152 32.4384 54.8314 32.8212L38.4999 49.1562L33.1683 43.8315C32.7846 43.4478 32.3291 43.1435 31.8277 42.9358C31.3264 42.7282 30.7891 42.6213 30.2464 42.6213C29.7038 42.6213 29.1664 42.7282 28.6651 42.9358C28.1638 43.1435 27.7082 43.4478 27.3245 43.8315C26.9408 44.2153 26.6365 44.6708 26.4288 45.1721C26.2211 45.6735 26.1143 46.2108 26.1143 46.7534C26.1143 47.2961 26.2211 47.8334 26.4288 48.3347C26.6365 48.8361 26.9408 49.2916 27.3245 49.6753L35.5745 57.9253C35.9578 58.3099 36.4131 58.615 36.9145 58.8232C37.4159 59.0314 37.9535 59.1385 38.4964 59.1385C39.0393 59.1385 39.5769 59.0314 40.0783 58.8232C40.5797 58.615 41.0351 58.3099 41.4183 57.9253L60.6683 38.6753C61.0528 38.2921 61.358 37.8367 61.5662 37.3353C61.7744 36.8339 61.8815 36.2963 61.8815 35.7534C61.8815 35.2105 61.7744 34.6729 61.5662 34.1715Z" fill="white"/>
<path d="M60.6683 32.8315C61.0528 33.2148 61.358 33.6701 61.5662 34.1715C61.7744 34.6729 61.8815 35.2105 61.8815 35.7534C61.8815 36.2963 61.7744 36.8339 61.5662 37.3353C61.358 37.8367 61.0528 38.2921 60.6683 38.6753L41.4183 57.9253C41.0351 58.3099 40.5797 58.615 40.0783 58.8232C39.5769 59.0314 39.0393 59.1385 38.4964 59.1385C37.9535 59.1385 37.4159 59.0314 36.9145 58.8232C36.4131 58.615 35.9578 58.3099 35.5745 57.9253L27.3245 49.6753C26.9408 49.2916 26.6365 48.8361 26.4288 48.3347C26.2211 47.8334 26.1143 47.2961 26.1143 46.7534C26.1143 46.2108 26.2211 45.6735 26.4288 45.1721C26.6365 44.6708 26.9408 44.2153 27.3245 43.8315C27.7082 43.4478 28.1638 43.1435 28.6651 42.9358C29.1664 42.7282 29.7038 42.6213 30.2464 42.6213C30.7891 42.6213 31.3264 42.7282 31.8277 42.9358C32.3291 43.1435 32.7846 43.4478 33.1683 43.8315L38.4999 49.1562L54.8314 32.8212C55.2152 32.4384 55.6707 32.1349 56.1718 31.9282C56.6729 31.7215 57.2099 31.6156 57.752 31.6166C58.2941 31.6175 58.8307 31.7253 59.3311 31.9338C59.8315 32.1423 60.2859 32.4473 60.6683 32.8315Z" fill="white"/>
</svg>
