<svg width="25" height="24" viewBox="0 0 25 24" fill="none" xmlns="http://www.w3.org/2000/svg">
<path d="M12.5 1.875C10.4975 1.875 8.5399 2.46882 6.87486 3.58137C5.20981 4.69392 3.91206 6.27523 3.14572 8.12533C2.37939 9.97543 2.17888 12.0112 2.56955 13.9753C2.96023 15.9393 3.92454 17.7435 5.34055 19.1595C6.75656 20.5755 8.56066 21.5398 10.5247 21.9305C12.4888 22.3211 14.5246 22.1206 16.3747 21.3543C18.2248 20.5879 19.8061 19.2902 20.9186 17.6251C22.0312 15.9601 22.625 14.0025 22.625 12C22.622 9.3156 21.5543 6.74199 19.6562 4.84383C17.758 2.94567 15.1844 1.87798 12.5 1.875ZM12.5 19.875C10.9425 19.875 9.41993 19.4131 8.12489 18.5478C6.82985 17.6825 5.82049 16.4526 5.22445 15.0136C4.62841 13.5747 4.47246 11.9913 4.77632 10.4637C5.08018 8.93606 5.8302 7.53287 6.93154 6.43153C8.03288 5.3302 9.43607 4.58017 10.9637 4.27632C12.4913 3.97246 14.0747 4.12841 15.5136 4.72445C16.9526 5.32049 18.1825 6.32985 19.0478 7.62488C19.9131 8.91992 20.375 10.4425 20.375 12C20.3728 14.0879 19.5424 16.0896 18.066 17.566C16.5896 19.0424 14.5879 19.8728 12.5 19.875ZM18.875 12C18.875 12.2984 18.7565 12.5845 18.5455 12.7955C18.3345 13.0065 18.0484 13.125 17.75 13.125H12.5C12.2016 13.125 11.9155 13.0065 11.7045 12.7955C11.4935 12.5845 11.375 12.2984 11.375 12V6.75C11.375 6.45163 11.4935 6.16548 11.7045 5.9545C11.9155 5.74353 12.2016 5.625 12.5 5.625C12.7984 5.625 13.0845 5.74353 13.2955 5.9545C13.5065 6.16548 13.625 6.45163 13.625 6.75V10.875H17.75C18.0484 10.875 18.3345 10.9935 18.5455 11.2045C18.7565 11.4155 18.875 11.7016 18.875 12Z" fill="#809BF9"/>
</svg>
