<svg width="40" height="40" viewBox="0 0 40 40" fill="none" xmlns="http://www.w3.org/2000/svg">
<path d="M20 3.125C16.6624 3.125 13.3998 4.1147 10.6248 5.96895C7.84968 7.8232 5.68677 10.4587 4.40954 13.5422C3.13231 16.6257 2.79813 20.0187 3.44926 23.2921C4.10038 26.5656 5.70757 29.5724 8.06758 31.9324C10.4276 34.2924 13.4344 35.8996 16.7079 36.5508C19.9813 37.2019 23.3743 36.8677 26.4578 35.5905C29.5413 34.3132 32.1768 32.1503 34.0311 29.3752C35.8853 26.6002 36.875 23.3376 36.875 20C36.87 15.526 35.0906 11.2367 31.927 8.07305C28.7634 4.90945 24.474 3.12996 20 3.125ZM20 33.125C17.4041 33.125 14.8665 32.3552 12.7081 30.913C10.5498 29.4708 8.86749 27.421 7.87409 25.0227C6.88069 22.6244 6.62077 19.9854 7.1272 17.4394C7.63363 14.8934 8.88367 12.5548 10.7192 10.7192C12.5548 8.88366 14.8934 7.63362 17.4394 7.12719C19.9854 6.62076 22.6244 6.88068 25.0227 7.87408C27.421 8.86748 29.4709 10.5497 30.913 12.7081C32.3552 14.8665 33.125 17.4041 33.125 20C33.1213 23.4798 31.7373 26.8161 29.2767 29.2767C26.8161 31.7373 23.4798 33.1213 20 33.125ZM26.875 23.125C26.875 24.4511 26.3482 25.7229 25.4105 26.6605C24.4729 27.5982 23.2011 28.125 21.875 28.125V28.75C21.875 29.2473 21.6775 29.7242 21.3258 30.0758C20.9742 30.4275 20.4973 30.625 20 30.625C19.5027 30.625 19.0258 30.4275 18.6742 30.0758C18.3226 29.7242 18.125 29.2473 18.125 28.75V28.125H16.25C15.7527 28.125 15.2758 27.9275 14.9242 27.5758C14.5726 27.2242 14.375 26.7473 14.375 26.25C14.375 25.7527 14.5726 25.2758 14.9242 24.9242C15.2758 24.5725 15.7527 24.375 16.25 24.375H21.875C22.2065 24.375 22.5245 24.2433 22.7589 24.0089C22.9933 23.7745 23.125 23.4565 23.125 23.125C23.125 22.7935 22.9933 22.4755 22.7589 22.2411C22.5245 22.0067 22.2065 21.875 21.875 21.875H18.125C16.7989 21.875 15.5272 21.3482 14.5895 20.4105C13.6518 19.4729 13.125 18.2011 13.125 16.875C13.125 15.5489 13.6518 14.2771 14.5895 13.3395C15.5272 12.4018 16.7989 11.875 18.125 11.875V11.25C18.125 10.7527 18.3226 10.2758 18.6742 9.92417C19.0258 9.57254 19.5027 9.375 20 9.375C20.4973 9.375 20.9742 9.57254 21.3258 9.92417C21.6775 10.2758 21.875 10.7527 21.875 11.25V11.875H23.75C24.2473 11.875 24.7242 12.0725 25.0758 12.4242C25.4275 12.7758 25.625 13.2527 25.625 13.75C25.625 14.2473 25.4275 14.7242 25.0758 15.0758C24.7242 15.4275 24.2473 15.625 23.75 15.625H18.125C17.7935 15.625 17.4755 15.7567 17.2411 15.9911C17.0067 16.2255 16.875 16.5435 16.875 16.875C16.875 17.2065 17.0067 17.5245 17.2411 17.7589C17.4755 17.9933 17.7935 18.125 18.125 18.125H21.875C23.2011 18.125 24.4729 18.6518 25.4105 19.5895C26.3482 20.5271 26.875 21.7989 26.875 23.125Z" fill="#809BF9"/>
</svg>
